<svg xmlns="http://www.w3.org/2000/svg" width="1056" height="1800" viewBox="0 0 1056 1800">
<rect width="1056" height="1800" fill="#080e16"/>
<text x="28" y="36.4" fill="#ecf0f4" font-size="18" font-family="Arial Bold, sans-serif" font-weight="bold" text-anchor="start">XSPARK  /  CHART CONSOLE</text>
<text x="28" y="65.0" fill="#899bab" font-size="10" font-family="Segoe UI, sans-serif" font-weight="normal" text-anchor="start">Illustrative source render; not a native MT5 screenshot.</text>
<text x="24" y="98.0" fill="#f7b955" font-size="10" font-family="Arial Bold, sans-serif" font-weight="bold" text-anchor="start">READABLE SIZE / 192 DPI FIXTURE</text>
<rect x="34" y="134" width="1000" height="1650" fill="#050a10" stroke="#050a10"/>
<rect x="24" y="122" width="1000" height="1650" fill="#0a1119" stroke="#223140"/>
<rect x="26" y="124" width="995" height="5" fill="#f7b955" stroke="#f7b955"/>
<rect x="64" y="167" width="15" height="42" fill="#f7b955" stroke="#f7b955"/>
<rect x="86" y="152" width="15" height="57" fill="#f7b955" stroke="#f7b955"/>
<text x="126" y="194.66666666666669" fill="#ecf0f4" font-size="53.333333333333336" font-family="Arial Bold, sans-serif" font-weight="bold" text-anchor="start">xspark</text>
<text x="604" y="193.33333333333334" fill="#f08c34" font-size="26.666666666666668" font-family="Arial Bold, sans-serif" font-weight="bold" text-anchor="start">FEED PAUSED</text>
<rect x="574" y="179" width="12" height="12" fill="#f08c34" stroke="#0a1119"/>
<rect x="434" y="157" width="55" height="60" fill="#121e2a" stroke="#ecf0f4"/>
<text x="456.71875" y="195.0" fill="#ecf0f4" font-size="26.666666666666668" font-family="Segoe UI, sans-serif" font-weight="normal" text-anchor="start">-</text>
<rect x="499" y="157" width="55" height="60" fill="#121e2a" stroke="#ecf0f4"/>
<text x="515.3984375" y="195.0" fill="#ecf0f4" font-size="26.666666666666668" font-family="Segoe UI, sans-serif" font-weight="normal" text-anchor="start">+</text>
<rect x="849" y="157" width="135" height="60" fill="#121e2a" stroke="#ecf0f4"/>
<text x="887.39453125" y="195.0" fill="#ecf0f4" font-size="26.666666666666668" font-family="Segoe UI, sans-serif" font-weight="normal" text-anchor="start">Less</text>
<text x="64" y="265.4666666666667" fill="#899bab" font-size="29.333333333333332" font-family="Arial Bold, sans-serif" font-weight="bold" text-anchor="start">XAUUSDm  /  M5</text>
<text x="64" y="356.0" fill="#899bab" font-size="80.0" font-family="Consolas, monospace" font-weight="normal" text-anchor="start">4378.062</text>
<text x="64" y="403.2" fill="#899bab" font-size="24.0" font-family="Arial Bold, sans-serif" font-weight="bold" text-anchor="start">WATCH ONLY</text>
<rect x="631" y="357" width="10" height="7" fill="#1c2a37" stroke="#0a1119"/>
<rect x="646" y="347" width="10" height="17" fill="#1c2a37" stroke="#0a1119"/>
<rect x="661" y="344" width="10" height="20" fill="#1c2a37" stroke="#0a1119"/>
<rect x="676" y="347" width="10" height="17" fill="#1c2a37" stroke="#0a1119"/>
<rect x="691" y="352" width="10" height="12" fill="#1c2a37" stroke="#0a1119"/>
<rect x="706" y="349" width="10" height="15" fill="#1c2a37" stroke="#0a1119"/>
<rect x="721" y="342" width="10" height="22" fill="#1c2a37" stroke="#0a1119"/>
<rect x="736" y="329" width="10" height="35" fill="#1c2a37" stroke="#0a1119"/>
<rect x="751" y="324" width="10" height="40" fill="#1c2a37" stroke="#0a1119"/>
<rect x="766" y="324" width="10" height="40" fill="#1c2a37" stroke="#0a1119"/>
<rect x="781" y="329" width="10" height="35" fill="#1c2a37" stroke="#0a1119"/>
<rect x="796" y="329" width="10" height="35" fill="#1c2a37" stroke="#0a1119"/>
<rect x="811" y="324" width="10" height="40" fill="#1c2a37" stroke="#0a1119"/>
<rect x="826" y="312" width="10" height="52" fill="#1c2a37" stroke="#0a1119"/>
<rect x="841" y="304" width="10" height="60" fill="#1c2a37" stroke="#0a1119"/>
<rect x="856" y="304" width="10" height="60" fill="#1c2a37" stroke="#0a1119"/>
<rect x="871" y="309" width="10" height="55" fill="#1c2a37" stroke="#0a1119"/>
<rect x="886" y="312" width="10" height="52" fill="#1c2a37" stroke="#0a1119"/>
<rect x="901" y="307" width="10" height="57" fill="#1c2a37" stroke="#0a1119"/>
<rect x="916" y="294" width="10" height="70" fill="#1c2a37" stroke="#0a1119"/>
<rect x="931" y="287" width="10" height="77" fill="#1c2a37" stroke="#0a1119"/>
<rect x="946" y="282" width="10" height="82" fill="#1c2a37" stroke="#0a1119"/>
<rect x="961" y="287" width="10" height="77" fill="#1c2a37" stroke="#0a1119"/>
<rect x="976" y="289" width="10" height="75" fill="#1c2a37" stroke="#0a1119"/>
<text x="984" y="403.2" fill="#899bab" font-size="24.0" font-family="Segoe UI, sans-serif" font-weight="normal" text-anchor="end">Last quote 10879s ago</text>
<rect x="54" y="442" width="940" height="310" fill="#0f1924" stroke="#223140"/>
<rect x="54" y="442" width="7" height="310" fill="#f08c34" stroke="#f08c34"/>
<text x="84" y="501.0" fill="#f08c34" font-size="40.0" font-family="Arial Bold, sans-serif" font-weight="bold" text-anchor="start">Waiting for fresh prices</text>
<text x="84" y="550.3333333333334" fill="#ecf0f4" font-size="26.666666666666668" font-family="Segoe UI, sans-serif" font-weight="normal" text-anchor="start">The price feed is missing or too old for a new entry.</text>
<text x="84" y="665.3333333333334" fill="#899bab" font-size="26.666666666666668" font-family="Segoe UI, sans-serif" font-weight="normal" text-anchor="start">Check the connection and market hours; entries wait for</text>
<text x="84" y="700.3333333333334" fill="#899bab" font-size="26.666666666666668" font-family="Segoe UI, sans-serif" font-weight="normal" text-anchor="start">fresh quotes.</text>
<text x="84" y="628.2" fill="#f7b955" font-size="24.0" font-family="Arial Bold, sans-serif" font-weight="bold" text-anchor="start">NEXT STEP</text>
<rect x="54" y="782" width="940" height="290" fill="#0f1924" stroke="#223140"/>
<text x="84" y="831.2" fill="#899bab" font-size="24.0" font-family="Arial Bold, sans-serif" font-weight="bold" text-anchor="start">LATEST CLOSED-CANDLE CHECK</text>
<text x="964" y="831.2" fill="#899bab" font-size="24.0" font-family="Consolas, monospace" font-weight="normal" text-anchor="end">--:--</text>
<text x="84" y="894.0" fill="#ecf0f4" font-size="40.0" font-family="Arial Bold, sans-serif" font-weight="bold" text-anchor="start">Looking for a setup</text>
<text x="964" y="898.8666666666667" fill="#f7b955" font-size="37.333333333333336" font-family="Consolas, monospace" font-weight="normal" text-anchor="end">-- / 9</text>
<rect x="84" y="929" width="880" height="12" fill="#1c2a37" stroke="#1c2a37"/>
<rect x="84" y="922" width="5" height="27" fill="#899bab" stroke="#899bab"/>
<text x="84" y="978.2" fill="#899bab" font-size="24.0" font-family="Segoe UI, sans-serif" font-weight="normal" text-anchor="start">Score available after a setup is evaluated</text>
<text x="84" y="1038.2" fill="#899bab" font-size="24.0" font-family="Segoe UI, sans-serif" font-weight="normal" text-anchor="start">Trend: Off</text>
<text x="384" y="1038.2" fill="#899bab" font-size="24.0" font-family="Segoe UI, sans-serif" font-weight="normal" text-anchor="start">Entry area: Off</text>
<text x="684" y="1038.2" fill="#899bab" font-size="24.0" font-family="Segoe UI, sans-serif" font-weight="normal" text-anchor="start">Momentum: Off</text>
<rect x="54" y="1102" width="940" height="270" fill="#0f1924" stroke="#223140"/>
<text x="84" y="1151.2" fill="#899bab" font-size="24.0" font-family="Arial Bold, sans-serif" font-weight="bold" text-anchor="start">ACCOUNT EQUITY</text>
<text x="449" y="1151.2" fill="#899bab" font-size="24.0" font-family="Arial Bold, sans-serif" font-weight="bold" text-anchor="start">OPEN PROFIT</text>
<text x="799" y="1151.2" fill="#899bab" font-size="24.0" font-family="Arial Bold, sans-serif" font-weight="bold" text-anchor="start">TRADES</text>
<text x="84" y="1219.5333333333333" fill="#ecf0f4" font-size="50.666666666666664" font-family="Consolas, monospace" font-weight="normal" text-anchor="start">10248.60</text>
<text x="449" y="1219.5333333333333" fill="#3dce83" font-size="50.666666666666664" font-family="Consolas, monospace" font-weight="normal" text-anchor="start">+0.00</text>
<text x="799" y="1219.5333333333333" fill="#ecf0f4" font-size="50.666666666666664" font-family="Consolas, monospace" font-weight="normal" text-anchor="start">0/3</text>
<text x="84" y="1263.2" fill="#899bab" font-size="24.0" font-family="Segoe UI, sans-serif" font-weight="normal" text-anchor="start">USD</text>
<text x="449" y="1263.2" fill="#899bab" font-size="24.0" font-family="Segoe UI, sans-serif" font-weight="normal" text-anchor="start">4 today / 7 in 24h</text>
<text x="84" y="1306.2" fill="#899bab" font-size="24.0" font-family="Segoe UI, sans-serif" font-weight="normal" text-anchor="start">Daily loss 0.8 / 15.0%</text>
<text x="544" y="1306.2" fill="#899bab" font-size="24.0" font-family="Segoe UI, sans-serif" font-weight="normal" text-anchor="start">Peak loss 2.4 / 25.0%</text>
<rect x="84" y="1332" width="415" height="10" fill="#1c2a37" stroke="#1c2a37"/>
<rect x="84" y="1332" width="22" height="10" fill="#3dce83" stroke="#3dce83"/>
<rect x="544" y="1332" width="415" height="10" fill="#1c2a37" stroke="#1c2a37"/>
<rect x="544" y="1332" width="40" height="10" fill="#3dce83" stroke="#3dce83"/>
<rect x="54" y="1402" width="940" height="250" fill="#0f1924" stroke="#223140"/>
<text x="84" y="1451.2" fill="#899bab" font-size="24.0" font-family="Arial Bold, sans-serif" font-weight="bold" text-anchor="start">THIS BOT&#x27;S OPEN TRADES</text>
<text x="964" y="1451.2" fill="#899bab" font-size="24.0" font-family="Consolas, monospace" font-weight="normal" text-anchor="end">Spread 2.0 pts</text>
<text x="84" y="1508.3333333333333" fill="#ecf0f4" font-size="26.666666666666668" font-family="Segoe UI, sans-serif" font-weight="normal" text-anchor="start">No open trades. Waiting for a new entry.</text>
<text x="64" y="1723.3333333333333" fill="#899bab" font-size="26.666666666666668" font-family="Consolas, monospace" font-weight="normal" text-anchor="start">Awaiting next tick</text>
<text x="984" y="1721.2" fill="#899bab" font-size="24.0" font-family="Segoe UI, sans-serif" font-weight="normal" text-anchor="end">Original entries</text>
<rect x="64" y="1742" width="920" height="7" fill="#1c2a37" stroke="#1c2a37"/>
<rect x="64" y="1742" width="920" height="7" fill="#1c2a37" stroke="#1c2a37"/>
</svg>
